<svg width="595" height="151" viewBox="0 0 595 151" fill="none" xmlns="http://www.w3.org/2000/svg">
<path d="M71.0065 106.309V150.496L142 105.737V61.5549L71.0065 106.309Z" fill="#929292"/>
<path d="M43.4151 33.3604V78.3629L71.0054 95.7543V51.5736L43.4151 33.3604Z" fill="#C7C7C7"/>
<path d="M142 4.24622L71.0065 51.5736V95.7542L142 50.9944V4.24622Z" fill="#929292"/>
<path d="M35.0385 82.4666V26.7214L0 4.24622V104.948L71 150.495V105.53L35.0385 82.4666Z" fill="#C7C7C7"/>
<path d="M0 0.496266L71 0.496266L142 0.496266L71 47.9958L0 0.496266Z" fill="#717171"/>
<path d="M156.744 56.5996V46.8036H202.897V56.5996H185.693V103H173.949V56.5996H156.744ZM223.374 103.823C219.039 103.823 215.307 102.945 212.179 101.189C209.069 99.4146 206.673 96.9084 204.99 93.6705C203.307 90.4144 202.465 86.5637 202.465 82.1184C202.465 77.783 203.307 73.978 204.99 70.7036C206.673 67.4291 209.042 64.8772 212.097 63.0479C215.17 61.2186 218.774 60.3039 222.908 60.3039C225.688 60.3039 228.277 60.7521 230.673 61.6485C233.088 62.5265 235.192 63.8528 236.984 65.6272C238.795 67.4017 240.204 69.6334 241.21 72.3225C242.216 74.9933 242.719 78.1214 242.719 81.7068V84.9173H207.13V77.6732H231.716C231.716 75.9903 231.35 74.4994 230.618 73.2006C229.887 71.9018 228.871 70.8865 227.573 70.1548C226.292 69.4047 224.801 69.0297 223.1 69.0297C221.325 69.0297 219.752 69.4413 218.38 70.2645C217.027 71.0694 215.966 72.1579 215.197 73.5298C214.429 74.8835 214.036 76.3927 214.017 78.0574V84.9447C214.017 87.0301 214.401 88.832 215.17 90.3503C215.956 91.8687 217.063 93.0394 218.49 93.8626C219.917 94.6858 221.609 95.0974 223.566 95.0974C224.865 95.0974 226.054 94.9145 227.133 94.5486C228.213 94.1827 229.137 93.6339 229.905 92.9022C230.673 92.1705 231.259 91.2741 231.661 90.2131L242.472 90.9266C241.923 93.5242 240.798 95.7925 239.097 97.7316C237.414 99.6524 235.237 101.152 232.567 102.232C229.914 103.293 226.85 103.823 223.374 103.823ZM262.366 103.796C259.677 103.796 257.28 103.329 255.177 102.396C253.073 101.445 251.408 100.046 250.183 98.1981C248.975 96.3322 248.372 94.0089 248.372 91.2284C248.372 88.8869 248.802 86.9204 249.661 85.3289C250.521 83.7374 251.692 82.4569 253.174 81.4873C254.655 80.5178 256.338 79.7861 258.223 79.2922C260.125 78.7982 262.119 78.4507 264.204 78.2495C266.656 77.9934 268.631 77.7555 270.131 77.536C271.631 77.2982 272.72 76.9506 273.397 76.4933C274.074 76.036 274.412 75.3591 274.412 74.4628V74.2981C274.412 72.5603 273.863 71.2158 272.766 70.2645C271.686 69.3133 270.15 68.8377 268.156 68.8377C266.052 68.8377 264.378 69.3041 263.134 70.2371C261.89 71.1517 261.067 72.3042 260.665 73.6945L249.853 72.8164C250.402 70.2554 251.482 68.0419 253.091 66.176C254.701 64.2918 256.777 62.8467 259.32 61.8406C261.881 60.8161 264.845 60.3039 268.211 60.3039C270.552 60.3039 272.793 60.5783 274.933 61.1271C277.092 61.6759 279.004 62.5265 280.668 63.679C282.351 64.8315 283.677 66.3132 284.647 68.1242C285.616 69.917 286.101 72.0664 286.101 74.5725V103H275.016V97.1554H274.686C274.01 98.4725 273.104 99.6341 271.97 100.64C270.836 101.628 269.473 102.405 267.881 102.973C266.29 103.521 264.451 103.796 262.366 103.796ZM265.714 95.7285C267.433 95.7285 268.951 95.3901 270.269 94.7132C271.586 94.0181 272.619 93.0851 273.369 91.9144C274.119 90.7436 274.494 89.4174 274.494 87.9356V83.463C274.128 83.7008 273.625 83.9203 272.985 84.1215C272.363 84.3045 271.659 84.4782 270.872 84.6429C270.086 84.7892 269.299 84.9264 268.512 85.0545C267.726 85.1642 267.012 85.2649 266.372 85.3563C265 85.5575 263.802 85.8777 262.778 86.3167C261.753 86.7557 260.957 87.3503 260.39 88.1003C259.823 88.832 259.54 89.7467 259.54 90.8442C259.54 92.4357 260.116 93.6522 261.268 94.4937C262.439 95.3169 263.921 95.7285 265.714 95.7285ZM295.17 103V60.8527H306.311V68.2889H306.804C307.683 65.8193 309.146 63.8711 311.195 62.4442C313.244 61.0174 315.695 60.3039 318.549 60.3039C321.439 60.3039 323.899 61.0265 325.93 62.4717C327.96 63.8985 329.314 65.8376 329.991 68.2889H330.43C331.29 65.8742 332.845 63.9443 335.095 62.4991C337.363 61.0357 340.043 60.3039 343.135 60.3039C347.068 60.3039 350.26 61.557 352.711 64.0632C355.181 66.551 356.415 70.0816 356.415 74.6549V103H344.753V76.9598C344.753 74.6183 344.131 72.8621 342.888 71.6914C341.644 70.5206 340.089 69.9352 338.223 69.9352C336.101 69.9352 334.445 70.6121 333.256 71.9658C332.067 73.3012 331.473 75.0665 331.473 77.2616V103H320.14V76.7128C320.14 74.6457 319.546 72.9993 318.357 71.7737C317.186 70.5481 315.64 69.9352 313.719 69.9352C312.42 69.9352 311.25 70.2645 310.207 70.9231C309.183 71.5633 308.368 72.4688 307.765 73.6396C307.161 74.7921 306.859 76.1457 306.859 77.7007V103H295.17ZM365.868 103V46.8036H403.076V56.5996H377.75V69.9901H400.607V79.7861H377.75V103H365.868ZM426.963 103.823C422.627 103.823 418.895 102.945 415.767 101.189C412.657 99.4146 410.261 96.9084 408.578 93.6705C406.895 90.4144 406.054 86.5637 406.054 82.1184C406.054 77.783 406.895 73.978 408.578 70.7036C410.261 67.4291 412.63 64.8772 415.685 63.0479C418.758 61.2186 422.362 60.3039 426.496 60.3039C429.277 60.3039 431.865 60.7521 434.262 61.6485C436.676 62.5265 438.78 63.8528 440.573 65.6272C442.384 67.4017 443.792 69.6334 444.798 72.3225C445.804 74.9933 446.308 78.1214 446.308 81.7068V84.9173H410.718V77.6732H435.304C435.304 75.9903 434.938 74.4994 434.207 73.2006C433.475 71.9018 432.46 70.8865 431.161 70.1548C429.88 69.4047 428.389 69.0297 426.688 69.0297C424.914 69.0297 423.341 69.4413 421.969 70.2645C420.615 71.0694 419.554 72.1579 418.786 73.5298C418.017 74.8835 417.624 76.3927 417.606 78.0574V84.9447C417.606 87.0301 417.99 88.832 418.758 90.3503C419.545 91.8687 420.651 93.0394 422.078 93.8626C423.505 94.6858 425.197 95.0974 427.155 95.0974C428.453 95.0974 429.643 94.9145 430.722 94.5486C431.801 94.1827 432.725 93.6339 433.493 92.9022C434.262 92.1705 434.847 91.2741 435.249 90.2131L446.061 90.9266C445.512 93.5242 444.387 95.7925 442.685 97.7316C441.003 99.6524 438.826 101.152 436.155 102.232C433.502 103.293 430.438 103.823 426.963 103.823ZM465.625 78.6336V103H453.936V60.8527H465.076V68.2889H465.57C466.503 65.8376 468.067 63.8985 470.262 62.4717C472.457 61.0265 475.119 60.3039 478.247 60.3039C481.174 60.3039 483.726 60.9442 485.903 62.2247C488.08 63.5052 489.772 65.3345 490.979 67.7126C492.187 70.0724 492.79 72.8896 492.79 76.164V103H481.101V78.2495C481.119 75.6701 480.461 73.6579 479.125 72.2127C477.79 70.7493 475.951 70.0176 473.61 70.0176C472.037 70.0176 470.646 70.356 469.439 71.0328C468.25 71.7097 467.317 72.6975 466.64 73.9963C465.982 75.2768 465.643 76.8226 465.625 78.6336ZM521.046 103.823C516.729 103.823 513.016 102.909 509.906 101.079C506.814 99.2316 504.436 96.6706 502.771 93.3961C501.125 90.1217 500.302 86.3533 500.302 82.091C500.302 77.7738 501.134 73.9872 502.799 70.731C504.482 67.4565 506.869 64.9046 509.961 63.0753C513.052 61.2277 516.729 60.3039 520.991 60.3039C524.668 60.3039 527.888 60.9716 530.65 62.307C533.412 63.6424 535.598 65.5175 537.208 67.9322C538.818 70.3468 539.705 73.1823 539.87 76.4384H528.839C528.528 74.3347 527.705 72.6426 526.37 71.3621C525.052 70.0633 523.324 69.4139 521.183 69.4139C519.372 69.4139 517.79 69.9078 516.436 70.8956C515.101 71.8652 514.058 73.2829 513.308 75.1488C512.558 77.0147 512.183 79.2739 512.183 81.9264C512.183 84.6154 512.549 86.9021 513.281 88.7863C514.031 90.6705 515.083 92.1065 516.436 93.0943C517.79 94.0821 519.372 94.576 521.183 94.576C522.519 94.576 523.717 94.3016 524.778 93.7528C525.857 93.2041 526.745 92.4083 527.44 91.3656C528.153 90.3046 528.62 89.0332 528.839 87.5515H539.87C539.687 90.7711 538.809 93.6065 537.236 96.0578C535.681 98.4908 533.531 100.393 530.787 101.765C528.043 103.137 524.796 103.823 521.046 103.823ZM566.562 103.823C562.226 103.823 558.494 102.945 555.366 101.189C552.256 99.4146 549.86 96.9084 548.177 93.6705C546.494 90.4144 545.653 86.5637 545.653 82.1184C545.653 77.783 546.494 73.978 548.177 70.7036C549.86 67.4291 552.229 64.8772 555.284 63.0479C558.357 61.2186 561.961 60.3039 566.095 60.3039C568.876 60.3039 571.464 60.7521 573.861 61.6485C576.275 62.5265 578.379 63.8528 580.172 65.6272C581.983 67.4017 583.391 69.6334 584.397 72.3225C585.404 74.9933 585.907 78.1214 585.907 81.7068V84.9173H550.317V77.6732H574.903C574.903 75.9903 574.537 74.4994 573.806 73.2006C573.074 71.9018 572.059 70.8865 570.76 70.1548C569.479 69.4047 567.989 69.0297 566.287 69.0297C564.513 69.0297 562.94 69.4413 561.568 70.2645C560.214 71.0694 559.153 72.1579 558.385 73.5298C557.616 74.8835 557.223 76.3927 557.205 78.0574V84.9447C557.205 87.0301 557.589 88.832 558.357 90.3503C559.144 91.8687 560.251 93.0394 561.677 93.8626C563.104 94.6858 564.796 95.0974 566.754 95.0974C568.053 95.0974 569.242 94.9145 570.321 94.5486C571.4 94.1827 572.324 93.6339 573.092 92.9022C573.861 92.1705 574.446 91.2741 574.848 90.2131L585.66 90.9266C585.111 93.5242 583.986 95.7925 582.285 97.7316C580.602 99.6524 578.425 101.152 575.754 102.232C573.101 103.293 570.037 103.823 566.562 103.823Z" fill="white"/>
</svg>
